HIERARCHY
ROOT Hips
{
	OFFSET -338.882294 -555.210510 88.995560
	CHANNELS 6 Xposition Yposition Zposition Zrotation Yrotation Xrotation
	JOINT Spine
	{
		OFFSET 0.000000 2.080078 8.814247
		CHANNELS 6 Xposition Yposition Zposition Zrotation Yrotation Xrotation
		JOINT Spine1
		{
			OFFSET 0.000000 0.000000 8.844139
			CHANNELS 6 Xposition Yposition Zposition Zrotation Yrotation Xrotation
			JOINT Spine2
			{
				OFFSET 0.000000 0.000000 11.682266
				CHANNELS 6 Xposition Yposition Zposition Zrotation Yrotation Xrotation
				JOINT Spine3
				{
					OFFSET 0.000000 0.000000 11.746704
					CHANNELS 6 Xposition Yposition Zposition Zrotation Yrotation Xrotation
					JOINT Neck
					{
						OFFSET 0.000000 0.000000 17.658264
						CHANNELS 6 Xposition Yposition Zposition Zrotation Yrotation Xrotation
						JOINT Neck1
						{
							OFFSET 0.000000 0.000000 5.101517
							CHANNELS 6 Xposition Yposition Zposition Zrotation Yrotation Xrotation
							JOINT Head
							{
								OFFSET 0.000000 0.000000 5.101517
								CHANNELS 6 Xposition Yposition Zposition Zrotation Yrotation Xrotation
								JOINT HeadEnd
								{
									OFFSET 0.000000 0.000000 11.655090
									CHANNELS 6 Xposition Yposition Zposition Zrotation Yrotation Xrotation
									End Site
									{
										OFFSET 0.000000 0.000000 0.100006
									}
								}
							}
						}
					}
					JOINT RightShoulder
					{
						OFFSET -2.625397 0.000000 11.175217
						CHANNELS 6 Xposition Yposition Zposition Zrotation Yrotation Xrotation
						JOINT RightArm
						{
							OFFSET 0.000000 0.000000 10.434723
							CHANNELS 6 Xposition Yposition Zposition Zrotation Yrotation Xrotation
							JOINT RightForeArm
							{
								OFFSET 0.000000 0.000000 29.628418
								CHANNELS 6 Xposition Yposition Zposition Zrotation Yrotation Xrotation
								JOINT RightHand
								{
									OFFSET 0.000000 0.000000 22.857605
									CHANNELS 6 Xposition Yposition Zposition Zrotation Yrotation Xrotation
									JOINT RightHandThumb1
									{
										OFFSET -2.867310 -2.944275 3.959564
										CHANNELS 6 Xposition Yposition Zposition Zrotation Yrotation Xrotation
										JOINT RightHandThumb2
										{
											OFFSET 0.000000 0.000000 3.350403
											CHANNELS 6 Xposition Yposition Zposition Zrotation Yrotation Xrotation
											JOINT RightHandThumb3
											{
												OFFSET 0.000000 0.000000 3.756516
												CHANNELS 6 Xposition Yposition Zposition Zrotation Yrotation Xrotation
												JOINT RightHandThumb4
												{
													OFFSET 0.000000 0.000000 3.147339
													CHANNELS 6 Xposition Yposition Zposition Zrotation Yrotation Xrotation
													End Site
													{
														OFFSET 0.000000 0.000000 0.100006
													}
												}
											}
										}
									}
									JOINT RightHandIndex1
									{
										OFFSET -0.086761 -2.345276 10.030899
										CHANNELS 6 Xposition Yposition Zposition Zrotation Yrotation Xrotation
										JOINT RightHandIndex2
										{
											OFFSET 0.000000 0.000000 4.061096
											CHANNELS 6 Xposition Yposition Zposition Zrotation Yrotation Xrotation
											JOINT RightHandIndex3
											{
												OFFSET 0.000000 0.000000 3.248871
												CHANNELS 6 Xposition Yposition Zposition Zrotation Yrotation Xrotation
												JOINT RightHandIndex4
												{
													OFFSET 0.000000 0.000000 2.639709
													CHANNELS 6 Xposition Yposition Zposition Zrotation Yrotation Xrotation
													End Site
													{
														OFFSET 0.000000 0.000000 0.100006
													}
												}
											}
										}
									}
									JOINT RightHandMiddle1
									{
										OFFSET 0.104095 -0.006775 9.502945
										CHANNELS 6 Xposition Yposition Zposition Zrotation Yrotation Xrotation
										JOINT RightHandMiddle2
										{
											OFFSET 0.000000 0.000000 4.568726
											CHANNELS 6 Xposition Yposition Zposition Zrotation Yrotation Xrotation
											JOINT RightHandMiddle3
											{
												OFFSET 0.000000 0.000000 3.654984
												CHANNELS 6 Xposition Yposition Zposition Zrotation Yrotation Xrotation
												JOINT RightHandMiddle4
												{
													OFFSET 0.000000 0.000000 2.741241
													CHANNELS 6 Xposition Yposition Zposition Zrotation Yrotation Xrotation
													End Site
													{
														OFFSET 0.000000 0.000000 0.100006
													}
												}
											}
										}
									}
									JOINT RightHandRing1
									{
										OFFSET 0.086761 2.267456 8.921707
										CHANNELS 6 Xposition Yposition Zposition Zrotation Yrotation Xrotation
										JOINT RightHandRing2
										{
											OFFSET 0.000000 0.000000 4.061096
											CHANNELS 6 Xposition Yposition Zposition Zrotation Yrotation Xrotation
											JOINT RightHandRing3
											{
												OFFSET 0.000000 0.000000 3.654984
												CHANNELS 6 Xposition Yposition Zposition Zrotation Yrotation Xrotation
												JOINT RightHandRing4
												{
													OFFSET 0.000000 0.000000 2.741241
													CHANNELS 6 Xposition Yposition Zposition Zrotation Yrotation Xrotation
													End Site
													{
														OFFSET 0.000000 0.000000 0.100006
													}
												}
											}
										}
									}
									JOINT RightHandPinky1
									{
										OFFSET -0.173492 4.467224 7.976990
										CHANNELS 6 Xposition Yposition Zposition Zrotation Yrotation Xrotation
										JOINT RightHandPinky2
										{
											OFFSET 0.000000 0.000000 3.350403
											CHANNELS 6 Xposition Yposition Zposition Zrotation Yrotation Xrotation
											JOINT RightHandPinky3
											{
												OFFSET 0.000000 0.000000 2.842758
												CHANNELS 6 Xposition Yposition Zposition Zrotation Yrotation Xrotation
												JOINT RightHandPinky4
												{
													OFFSET 0.000000 0.000000 2.639709
													CHANNELS 6 Xposition Yposition Zposition Zrotation Yrotation Xrotation
													End Site
													{
														OFFSET 0.000000 0.000000 0.100006
													}
												}
											}
										}
									}
									JOINT RightForeArmEnd
									{
										OFFSET 0.000000 0.000000 0.000000
										CHANNELS 6 Xposition Yposition Zposition Zrotation Yrotation Xrotation
										End Site
										{
											OFFSET 0.000000 0.000000 0.100006
										}
									}
								}
								JOINT RightArmEnd
								{
									OFFSET 0.000000 0.000000 0.000000
									CHANNELS 6 Xposition Yposition Zposition Zrotation Yrotation Xrotation
									End Site
									{
										OFFSET 0.000000 0.000000 0.100006
									}
								}
							}
						}
					}
					JOINT LeftShoulder
					{
						OFFSET 2.625397 0.000000 11.175217
						CHANNELS 6 Xposition Yposition Zposition Zrotation Yrotation Xrotation
						JOINT LeftArm
						{
							OFFSET 0.000000 0.000000 10.813629
							CHANNELS 6 Xposition Yposition Zposition Zrotation Yrotation Xrotation
							JOINT LeftForeArm
							{
								OFFSET 0.000000 0.000000 28.724777
								CHANNELS 6 Xposition Yposition Zposition Zrotation Yrotation Xrotation
								JOINT LeftHand
								{
									OFFSET 0.644379 0.328857 25.716171
									CHANNELS 6 Xposition Yposition Zposition Zrotation Yrotation Xrotation
									JOINT LeftHandThumb1
									{
										OFFSET 2.867310 -2.944275 3.959564
										CHANNELS 6 Xposition Yposition Zposition Zrotation Yrotation Xrotation
										JOINT LeftHandThumb2
										{
											OFFSET 0.000000 0.000000 3.350403
											CHANNELS 6 Xposition Yposition Zposition Zrotation Yrotation Xrotation
											JOINT LeftHandThumb3
											{
												OFFSET 0.000000 0.000000 3.756516
												CHANNELS 6 Xposition Yposition Zposition Zrotation Yrotation Xrotation
												JOINT LeftHandThumb4
												{
													OFFSET 0.000000 0.000000 3.100006
													CHANNELS 6 Xposition Yposition Zposition Zrotation Yrotation Xrotation
													End Site
													{
														OFFSET 0.000000 0.000000 0.100006
													}
												}
											}
										}
									}
									JOINT LeftHandIndex1
									{
										OFFSET 0.086761 -2.345276 10.030899
										CHANNELS 6 Xposition Yposition Zposition Zrotation Yrotation Xrotation
										JOINT LeftHandIndex2
										{
											OFFSET 0.000000 0.000000 4.061096
											CHANNELS 6 Xposition Yposition Zposition Zrotation Yrotation Xrotation
											JOINT LeftHandIndex3
											{
												OFFSET 0.000000 0.000000 3.248871
												CHANNELS 6 Xposition Yposition Zposition Zrotation Yrotation Xrotation
												JOINT LeftHandIndex4
												{
													OFFSET 0.000000 0.000000 2.639709
													CHANNELS 6 Xposition Yposition Zposition Zrotation Yrotation Xrotation
													End Site
													{
														OFFSET 0.000000 0.000000 0.100006
													}
												}
											}
										}
									}
									JOINT LeftHandMiddle1
									{
										OFFSET -0.104095 -0.006775 9.502945
										CHANNELS 6 Xposition Yposition Zposition Zrotation Yrotation Xrotation
										JOINT LeftHandMiddle2
										{
											OFFSET 0.000000 0.000000 4.568726
											CHANNELS 6 Xposition Yposition Zposition Zrotation Yrotation Xrotation
											JOINT LeftHandMiddle3
											{
												OFFSET 0.000000 0.000000 3.654984
												CHANNELS 6 Xposition Yposition Zposition Zrotation Yrotation Xrotation
												JOINT LeftHandMiddle4
												{
													OFFSET 0.000000 0.000000 2.741241
													CHANNELS 6 Xposition Yposition Zposition Zrotation Yrotation Xrotation
													End Site
													{
														OFFSET 0.000000 0.000000 0.100006
													}
												}
											}
										}
									}
									JOINT LeftHandRing1
									{
										OFFSET -0.086761 2.267456 8.921707
										CHANNELS 6 Xposition Yposition Zposition Zrotation Yrotation Xrotation
										JOINT LeftHandRing2
										{
											OFFSET 0.000000 0.000000 4.061096
											CHANNELS 6 Xposition Yposition Zposition Zrotation Yrotation Xrotation
											JOINT LeftHandRing3
											{
												OFFSET 0.000000 0.000000 3.654984
												CHANNELS 6 Xposition Yposition Zposition Zrotation Yrotation Xrotation
												JOINT LeftHandRing4
												{
													OFFSET 0.000000 0.000000 2.741241
													CHANNELS 6 Xposition Yposition Zposition Zrotation Yrotation Xrotation
													End Site
													{
														OFFSET 0.000000 0.000000 0.100006
													}
												}
											}
										}
									}
									JOINT LeftHandPinky1
									{
										OFFSET 0.173492 4.467224 7.976990
										CHANNELS 6 Xposition Yposition Zposition Zrotation Yrotation Xrotation
										JOINT LeftHandPinky2
										{
											OFFSET 0.000000 0.000000 3.350403
											CHANNELS 6 Xposition Yposition Zposition Zrotation Yrotation Xrotation
											JOINT LeftHandPinky3
											{
												OFFSET 0.000000 0.000000 2.842758
												CHANNELS 6 Xposition Yposition Zposition Zrotation Yrotation Xrotation
												JOINT LeftHandPinky4
												{
													OFFSET 0.000000 0.000000 2.639709
													CHANNELS 6 Xposition Yposition Zposition Zrotation Yrotation Xrotation
													End Site
													{
														OFFSET 0.000000 0.000000 0.100006
													}
												}
											}
										}
									}
									JOINT LeftForeArmEnd
									{
										OFFSET 0.000000 0.000000 0.000000
										CHANNELS 6 Xposition Yposition Zposition Zrotation Yrotation Xrotation
										End Site
										{
											OFFSET 0.000000 0.000000 0.100006
										}
									}
								}
								JOINT LeftArmEnd
								{
									OFFSET 0.000000 0.000000 0.000000
									CHANNELS 6 Xposition Yposition Zposition Zrotation Yrotation Xrotation
									End Site
									{
										OFFSET 0.000000 0.000000 0.100006
									}
								}
							}
						}
					}
				}
			}
		}
	}
	JOINT RightUpLeg
	{
		OFFSET -11.289948 0.000000 0.000000
		CHANNELS 6 Xposition Yposition Zposition Zrotation Yrotation Xrotation
		JOINT RightLeg
		{
			OFFSET 0.000000 0.000000 -38.200321
			CHANNELS 6 Xposition Yposition Zposition Zrotation Yrotation Xrotation
			JOINT RightFoot
			{
				OFFSET 0.000000 0.000000 -39.900856
				CHANNELS 6 Xposition Yposition Zposition Zrotation Yrotation Xrotation
				JOINT RightToeBase
				{
					OFFSET 0.000000 -15.261658 0.000001
					CHANNELS 6 Xposition Yposition Zposition Zrotation Yrotation Xrotation
					JOINT RightToeBaseEnd
					{
						OFFSET 0.000000 -7.370728 0.000001
						CHANNELS 6 Xposition Yposition Zposition Zrotation Yrotation Xrotation
						End Site
						{
							OFFSET 0.000000 0.000000 0.100000
						}
					}
				}
				JOINT RightLegEnd
				{
					OFFSET 0.000000 0.000000 0.000000
					CHANNELS 6 Xposition Yposition Zposition Zrotation Yrotation Xrotation
					End Site
					{
						OFFSET 0.000000 0.000000 0.100000
					}
				}
			}
			JOINT RightUpLegEnd
			{
				OFFSET 0.000000 0.000000 0.000000
				CHANNELS 6 Xposition Yposition Zposition Zrotation Yrotation Xrotation
				End Site
				{
					OFFSET 0.000000 0.000000 0.099998
				}
			}
		}
	}
	JOINT LeftUpLeg
	{
		OFFSET 11.315674 0.000000 0.000000
		CHANNELS 6 Xposition Yposition Zposition Zrotation Yrotation Xrotation
		JOINT LeftLeg
		{
			OFFSET 0.000000 0.000000 -38.200321
			CHANNELS 6 Xposition Yposition Zposition Zrotation Yrotation Xrotation
			JOINT LeftFoot
			{
				OFFSET 0.000000 0.000000 -39.900856
				CHANNELS 6 Xposition Yposition Zposition Zrotation Yrotation Xrotation
				JOINT LeftToeBase
				{
					OFFSET 0.000000 -15.261658 0.000001
					CHANNELS 6 Xposition Yposition Zposition Zrotation Yrotation Xrotation
					JOINT LeftToeBaseEnd
					{
						OFFSET 0.000000 -7.539978 0.000001
						CHANNELS 6 Xposition Yposition Zposition Zrotation Yrotation Xrotation
						End Site
						{
							OFFSET 0.000000 0.000000 0.100000
						}
					}
				}
				JOINT LeftLegEnd
				{
					OFFSET 0.000000 0.000000 0.000000
					CHANNELS 6 Xposition Yposition Zposition Zrotation Yrotation Xrotation
					End Site
					{
						OFFSET 0.000000 0.000000 0.100000
					}
				}
			}
			JOINT LeftUpLegEnd
			{
				OFFSET 0.000000 0.000000 0.000000
				CHANNELS 6 Xposition Yposition Zposition Zrotation Yrotation Xrotation
				End Site
				{
					OFFSET 0.000000 0.000000 0.099998
				}
			}
		}
	}
}
MOTION
Frames: 2
Frame Time: 0.016667
3.637146 -11.838989 88.551994 -6.842217 1.281971 -2.778076 0.000011 2.080102 8.814250 -0.205071 -1.403263 0.627438 -0.000009 -0.000028 8.844137 -0.210049 0.622409 0.106841 0.000003 0.000012 11.682257 -4.744037 -1.674699 2.994325 0.000024 -0.000007 11.746726 -1.405884 -2.095328 4.143874 0.000009 0.000025 17.658247 3.936521 3.403921 13.118119 0.000003 -0.000027 5.101548 4.992107 -0.801990 0.604248 0.000011 0.000004 5.101532 -0.799818 1.083752 -18.616565 0.000000 0.000001 11.655090 -0.000000 0.000000 0.000000 -2.625402 -0.000000 11.175175 3.453553 -87.994748 -0.122760 0.000000 0.000008 10.434738 57.134307 -36.654934 -46.255035 0.000042 0.000015 29.628412 24.414936 0.536189 124.839438 0.000046 -0.000053 22.857582 51.263018 -36.042898 11.368506 -2.867317 -2.944275 3.959625 32.544567 -26.594178 38.430896 0.000008 -0.000031 3.350410 -33.283727 10.408516 -56.106381 0.000008 0.000015 3.756523 -22.156819 10.832782 -38.322819 -0.000044 0.000012 3.147337 -0.000003 0.000001 -0.000001 -0.086767 -2.345261 10.030890 -92.849154 -71.483551 91.519508 -0.000042 -0.000025 4.061073 -8.985302 -62.406291 15.598945 0.000000 0.000021 3.248825 -9.485303 -62.406332 15.598941 -0.000008 -0.000004 2.639727 0.000001 0.000002 0.000001 0.104075 -0.006791 9.502954 -82.167374 -76.384253 84.858981 -0.000034 0.000014 4.568716 -2.832834 -61.674955 5.579711 -0.000029 -0.000029 3.654978 -3.332794 -61.674955 5.579677 0.000015 -0.000003 2.741265 -0.000001 0.000004 0.000000 0.086745 2.267435 8.921734 -114.096425 -83.931762 122.067037 -0.000017 -0.000020 4.061106 3.523205 -64.062421 -7.224038 0.000006 -0.000028 3.654985 4.523202 -64.062434 -7.224049 -0.000028 0.000001 2.741239 -0.000000 0.000001 0.000001 -0.173492 4.467234 7.976952 144.807810 -85.416256 -131.404015 -0.000038 0.000029 3.350410 10.523967 -61.441274 -20.924092 -0.000004 -0.000008 2.842735 12.523960 -61.441260 -20.924095 0.000003 -0.000004 2.639702 0.000000 -0.000001 0.000002 -0.000007 0.000006 0.000013 0.000000 -0.000002 -0.000002 -0.000013 0.000002 0.000011 -0.000000 0.000002 0.000000 2.625387 0.000008 11.175206 -2.263085 81.322288 -0.322043 0.000011 0.000011 10.813652 -33.245628 59.250921 -42.808607 -0.000046 -0.000015 28.724863 -26.895851 -1.133986 134.580490 0.644413 0.328880 25.716194 -29.353769 23.700919 10.678943 2.867241 -2.944305 3.959549 -31.623885 17.268303 51.506593 -0.000004 0.000015 3.350418 12.679388 -8.429102 -22.889697 -0.000010 -0.000008 3.756508 8.440153 -6.403182 -15.670611 -0.000004 -0.000016 3.100034 0.000001 -0.000000 -0.000001 0.086767 -2.345246 10.030882 -152.894672 -86.230414 -13.833132 0.000010 0.000005 4.061126 0.499965 0.140563 0.001294 0.000023 -0.000014 3.248892 0.000004 -0.078197 -0.002346 0.000013 0.000012 2.639729 -0.000002 -0.000005 0.000003 -0.104046 -0.006720 9.502955 -63.950843 -82.764940 -120.779014 -0.000011 0.000092 4.568743 0.500040 0.000368 0.000103 -0.000008 0.000005 3.654951 -0.000021 0.000090 -0.000037 0.000031 0.000007 2.741244 0.000001 0.000000 -0.000002 -0.086792 2.267474 8.921730 148.544047 63.060049 153.446552 0.000015 -0.000025 4.061096 13.731079 78.744985 17.906466 0.000004 -0.000017 3.654976 14.729585 78.745067 17.904018 -0.000008 -0.000005 2.741238 0.000002 0.000004 0.000001 0.173492 4.467175 7.976974 139.776365 55.427842 155.150985 0.000000 0.000008 3.350399 47.739085 77.366325 60.136988 0.000015 -0.000023 2.842762 49.739101 77.366338 60.143962 -0.000000 0.000005 2.639702 0.000000 0.000003 0.000001 -0.000007 -0.000020 0.000015 0.000003 0.000001 0.000001 0.000012 0.000015 -0.000010 -0.000001 0.000004 0.000000 -11.289983 -0.000095 -0.000002 -10.348963 -4.633684 3.156165 -0.000003 0.000060 -38.200317 -0.426776 0.059282 7.698270 0.000010 -0.000001 -39.900871 -11.387126 3.282664 18.441933 0.000037 -15.261808 0.000024 0.259203 1.400925 -19.534372 0.000020 -7.370781 0.000001 -0.000001 -0.000000 0.000001 -0.000030 -0.000057 0.000002 -0.000001 -0.000002 -0.000000 -0.000029 0.000023 -0.000004 -0.000004 -0.000000 0.000000 11.315633 0.000024 -0.000005 -7.570005 0.740342 -3.366843 -0.000028 -0.000017 -38.200333 -0.021442 0.008206 20.948168 0.000008 -0.000070 -39.900848 6.651917 -4.074104 12.779570 -0.000029 -15.261724 0.000018 0.321624 -0.438315 -23.378558 -0.000040 -7.539981 0.000002 0.000001 -0.000001 -0.000000 -0.000043 -0.000003 -0.000000 0.000000 0.000000 0.000000 -0.000042 0.000000 0.000001 0.000000 -0.000000 0.000001 
3.625458 -11.777893 88.305969 -6.245285 1.082156 -3.601927 0.000006 2.080089 8.814244 -0.204054 -1.273340 1.323281 -0.000000 -0.000004 8.844145 -0.166954 0.783359 0.412376 -0.000006 -0.000019 11.682256 -4.684638 -1.738436 3.049280 -0.000021 -0.000047 11.746692 -1.350582 -1.908580 3.740329 -0.000002 -0.000015 17.658276 3.494647 2.560360 13.069628 0.000001 0.000019 5.101519 4.628681 -0.810975 0.882954 -0.000009 0.000010 5.101528 -0.761661 0.845059 -18.614367 0.000004 -0.000003 11.655106 0.000000 0.000000 -0.000000 -2.625407 0.000026 11.175206 4.224523 -89.182033 -0.139932 -0.000046 -0.000018 10.434731 58.115443 -40.035055 -48.433937 -0.000023 -0.000031 29.628330 25.589688 0.598735 122.753717 0.000103 -0.000023 22.857582 53.403945 -38.828597 10.042357 -2.867303 -2.944260 3.959579 32.486880 -26.400044 38.690573 0.000000 0.000000 3.350437 -32.871194 10.485721 -55.441793 -0.000023 0.000015 3.756477 -21.866941 10.798260 -37.858837 -0.000034 0.000010 3.147327 -0.000002 -0.000001 -0.000001 -0.086774 -2.345243 10.030931 -91.674847 -71.498427 89.136236 -0.000038 -0.000013 4.061081 -8.764443 -62.034537 15.349313 -0.000027 -0.000031 3.248856 -9.264483 -62.034517 15.349356 0.000006 0.000007 2.639704 -0.000000 -0.000001 -0.000000 0.104077 -0.006767 9.502949 -79.387009 -76.274744 81.219214 -0.000021 0.000026 4.568716 -2.731235 -61.172595 5.464032 -0.000023 -0.000055 3.654984 -3.231265 -61.172581 5.464060 0.000001 -0.000006 2.741249 0.000002 0.000000 0.000001 0.086744 2.267420 8.921692 -104.937039 -84.268552 112.459652 -0.000038 0.000003 4.061087 3.335941 -63.398936 -7.015236 0.000004 0.000003 3.654989 4.335976 -63.398922 -7.015238 -0.000010 -0.000001 2.741253 -0.000000 0.000003 -0.000001 -0.173482 4.467233 7.976978 134.169381 -86.318148 -120.749535 0.000000 0.000010 3.350418 9.943964 -60.694495 -20.261410 0.000027 0.000027 2.842781 11.943949 -60.694468 -20.261375 -0.000004 -0.000006 2.639678 0.000001 0.000003 0.000000 0.000007 0.000004 0.000008 -0.000001 0.000001 0.000001 0.000009 -0.000004 0.000010 0.000000 -0.000001 0.000002 2.625387 0.000017 11.175247 -2.764889 85.197908 -0.338675 0.000011 -0.000008 10.813602 -31.795210 60.675658 -38.766610 -0.000011 -0.000038 28.724854 -27.324163 -1.196738 133.541823 0.644360 0.328903 25.716202 -30.393454 24.209296 11.578158 2.867302 -2.944305 3.959572 -31.623878 17.268306 51.506583 0.000015 0.000000 3.350399 12.679379 -8.429113 -22.889673 -0.000002 0.000027 3.756516 8.440158 -6.403171 -15.670633 -0.000006 0.000003 3.099998 0.000000 -0.000000 0.000001 0.086744 -2.345286 10.030925 -153.694706 -86.143835 -13.519733 0.000010 0.000029 4.061147 0.499964 0.000041 0.000062 -0.000007 -0.000000 3.248885 0.000003 -0.000006 -0.002160 0.000016 0.000002 2.639738 -0.000000 -0.000003 0.000003 -0.104061 -0.006767 9.502934 -64.897398 -82.820435 -120.390608 0.000013 -0.000022 4.568742 0.500034 0.000365 0.000096 -0.000020 -0.000016 3.654974 -0.000017 0.000086 -0.000032 -0.000015 -0.000015 2.741229 0.000002 0.000000 0.000003 -0.086754 2.267427 8.921707 148.518871 63.080110 153.567569 0.000011 0.000008 4.061123 13.714602 78.737287 17.889997 -0.000011 -0.000009 3.654957 14.714536 78.737314 17.888925 0.000009 0.000009 2.741262 -0.000002 -0.000000 0.000001 0.173492 4.467197 7.976990 139.821035 55.415394 155.399221 -0.000004 0.000008 3.350412 47.933486 77.390633 60.335658 -0.000027 0.000072 2.842787 49.933338 77.390606 60.345445 -0.000003 0.000002 2.639699 -0.000002 0.000000 -0.000002 -0.000004 -0.000015 0.000024 -0.000000 -0.000001 0.000000 0.000002 0.000007 0.000001 -0.000001 0.000001 0.000001 -11.289965 -0.000077 -0.000010 -9.818898 -4.440753 2.049512 -0.000043 -0.000025 -38.200329 -0.307052 0.061883 11.394525 -0.000016 -0.000012 -39.900856 -12.808247 2.926650 16.334993 0.000034 -15.261709 0.000016 0.272914 1.330036 -19.267542 -0.000011 -7.370770 -0.000000 -0.000003 0.000000 0.000001 -0.000037 -0.000003 0.000002 0.000000 -0.000001 0.000000 -0.000037 -0.000017 -0.000005 0.000003 -0.000000 -0.000001 11.315635 -0.000009 0.000013 -8.091137 1.045756 -3.287351 -0.000023 -0.000007 -38.200317 -0.011236 0.004532 22.240385 -0.000023 -0.000003 -39.900860 6.797117 -3.805874 11.908864 0.000012 -15.261689 0.000029 0.298580 -0.427197 -23.514091 -0.000035 -7.539972 0.000001 -0.000001 -0.000000 0.000000 -0.000007 0.000001 0.000002 -0.000000 -0.000000 -0.000001 -0.000029 -0.000003 0.000001 0.000000 0.000000 0.000002 
